<svg viewBox="0 0 16 15" fill="#5297FF" xmlns="http://www.w3.org/2000/svg">
  <path fill-rule="evenodd" clip-rule="evenodd"
    d="M7.917 5.862c.304 0 .55.24.55.534V9.24a.542.542 0 0 1-.55.533.542.542 0 0 1-.551-.533V6.396c0-.295.247-.534.55-.534Z" />
  <path
    d="M8.65 11.373a.723.723 0 0 1-.733.71.723.723 0 0 1-.734-.71c0-.393.328-.711.734-.711.405 0 .734.318.734.71Z" />
  <path fill-rule="evenodd" clip-rule="evenodd"
    d="M6.284 1.339C7.073.22 8.761.22 9.55 1.339c.978 1.386 2.362 3.403 3.288 4.984.972 1.66 2.079 3.933 2.815 5.499.58 1.232-.295 2.63-1.688 2.71-1.716.098-4.181.218-6.047.218-1.866 0-4.332-.12-6.048-.218-1.393-.08-2.267-1.478-1.688-2.71.737-1.566 1.844-3.839 2.816-5.499.925-1.581 2.31-3.598 3.287-4.984Zm2.356.601a.887.887 0 0 0-1.446 0c-.977 1.385-2.338 3.37-3.24 4.91-.946 1.615-2.035 3.85-2.77 5.414-.258.548.126 1.167.75 1.203 1.715.098 4.152.216 5.983.216 1.83 0 4.268-.117 5.982-.216.624-.036 1.009-.655.75-1.203-.734-1.564-1.824-3.799-2.77-5.415-.901-1.54-2.263-3.524-3.24-4.909Z" />
</svg>