<svg viewBox="0 0 22 22" fill="none" xmlns="http://www.w3.org/2000/svg">
  <circle cx="11" cy="11" r="10.5" stroke="#5297FF" />
  <path
    d="M15.9123 13.9865C15.8913 13.9524 15.8675 13.9034 15.8441 13.8434C15.8028 13.7377 15.7628 13.5977 15.7283 13.4348C15.6759 13.1903 15.6354 12.8939 15.6085 12.5733C15.5815 12.2529 15.5676 11.9076 15.568 11.5625C15.5676 10.9426 15.6125 10.3209 15.6977 9.84492C15.7402 9.60762 15.7934 9.40623 15.8493 9.26796C15.877 9.199 15.9052 9.14637 15.9274 9.11492C15.9381 9.09918 15.9472 9.0889 15.9524 9.08385L15.9564 9.08016L16.9131 8.53952L16.6085 8.02293L15.6517 8.56359C15.6509 8.56398 15.6446 8.56613 15.6315 8.56805C15.6176 8.57041 15.5974 8.57215 15.5716 8.57215C15.5256 8.57215 15.4633 8.56651 15.3896 8.5537C15.2511 8.5296 15.0746 8.48087 14.8771 8.41153C14.5308 8.29017 14.1198 8.10645 13.7033 7.89088C13.0786 7.56791 12.4387 7.17155 11.9671 6.80915C11.7314 6.62855 11.5383 6.45531 11.4145 6.31414C11.3523 6.24403 11.3082 6.18187 11.2848 6.13798C11.2729 6.11621 11.2662 6.09935 11.2634 6.08963C11.2618 6.08517 11.2614 6.08243 11.261 6.08145V5H10.6517V6.08168C10.6513 6.08461 10.6462 6.10578 10.6279 6.13841C10.6101 6.17143 10.5807 6.21473 10.5411 6.26385C10.4665 6.3561 10.3558 6.46795 10.2186 6.5872C9.97819 6.79654 9.65766 7.03038 9.30185 7.25914C8.76872 7.60288 8.15547 7.93749 7.60611 8.1822C7.33161 8.30455 7.07297 8.40455 6.85204 8.47195C6.74177 8.50576 6.641 8.53139 6.55374 8.54808C6.46688 8.56477 6.39349 8.57233 6.34116 8.57215C6.30982 8.57215 6.28639 8.56944 6.27333 8.56672C6.26657 8.56536 6.26262 8.56421 6.26102 8.56362L5.30466 8.02295L5.00003 8.53955L5.95639 9.08018C5.9588 9.08157 5.9778 9.10018 6.00082 9.13845C6.02145 9.17262 6.04524 9.22138 6.06904 9.28157C6.1103 9.38724 6.15036 9.52725 6.18486 9.69019C6.23683 9.93469 6.27728 10.2311 6.30427 10.5517C6.33166 10.8721 6.34514 11.2174 6.34514 11.5625C6.34514 12.1824 6.30071 12.804 6.21502 13.2799C6.17258 13.5174 6.11941 13.7187 6.06349 13.857C6.03574 13.9258 6.00757 13.9786 5.98574 14.0101C5.97464 14.0256 5.9655 14.0361 5.96034 14.0411L5.95636 14.0448L5 14.5855L5.30463 15.102L6.26099 14.5612C6.26497 14.5595 6.29354 14.5525 6.34113 14.5528C6.38713 14.5526 6.44981 14.5585 6.52319 14.5713C6.66163 14.5952 6.83853 14.6441 7.03606 14.7134C7.38234 14.8348 7.7929 15.0183 8.2094 15.2339C8.83417 15.5571 9.47438 15.9532 9.94562 16.3158C10.1812 16.4964 10.3748 16.6696 10.4986 16.8108C10.5605 16.8809 10.6045 16.9431 10.6279 16.9868C10.6398 17.0087 10.6469 17.0256 10.6497 17.0353C10.6509 17.0394 10.6513 17.0419 10.6517 17.0431V18.125H11.261V17.0437C11.261 17.0417 11.2665 17.0202 11.2852 16.9864C11.3026 16.9535 11.332 16.9102 11.3717 16.8611C11.4462 16.7687 11.5573 16.657 11.6945 16.5378C11.9349 16.3284 12.2554 16.0946 12.6109 15.8656C13.144 15.5219 13.7576 15.1873 14.307 14.9426C14.5811 14.8202 14.8397 14.7204 15.0607 14.6528C15.171 14.619 15.2721 14.5934 15.359 14.5769C15.4458 14.56 15.5193 14.5526 15.5716 14.5528C15.6029 14.5526 15.6263 14.5553 15.6398 14.5581C15.6462 14.5594 15.6498 14.5606 15.6517 14.5612L16.6085 15.102L16.9131 14.5854L15.9567 14.0448C15.9544 14.0436 15.9353 14.0252 15.9123 13.9865ZM6.77544 13.5816C6.83099 13.327 6.87264 13.0386 6.90199 12.7293C6.93691 12.3595 6.95435 11.961 6.95435 11.5625C6.95396 10.9142 6.90911 10.2677 6.81512 9.74205C6.80282 9.67368 6.78973 9.60746 6.77585 9.54356L8.17728 10.3357C8.18084 10.3417 8.18521 10.3499 8.18956 10.3604C8.20741 10.3988 8.22964 10.4647 8.24828 10.5464C8.27724 10.6695 8.30106 10.8288 8.31651 11.004C8.33198 11.1793 8.3403 11.3708 8.3403 11.5625C8.3403 11.8885 8.31651 12.2164 8.27247 12.4605C8.25106 12.5818 8.2237 12.6827 8.1987 12.7434C8.19034 12.7642 8.18283 12.7796 8.17728 12.7893L6.77544 13.5816ZM13.0123 12.3803L11.5656 11.5625L13.0123 10.7445C13.0047 10.8028 12.998 10.8622 12.992 10.9234C12.9726 11.1269 12.9635 11.3446 12.9635 11.5625C12.9635 11.8462 12.9794 12.1282 13.0123 12.3803ZM8.90038 12.3803C8.90792 12.322 8.91506 12.2628 8.92061 12.2014C8.94004 11.9981 8.94957 11.7804 8.94957 11.5625C8.9492 11.2788 8.93331 10.9968 8.90038 10.7445L10.347 11.5625L8.90038 12.3803ZM11.261 11.0459V9.41033C11.3356 9.46588 11.4141 9.52123 11.4966 9.5764C11.8104 9.78573 12.1733 9.98868 12.5125 10.1436C12.5791 10.1739 12.6438 10.2017 12.708 10.2279L11.261 11.0459ZM10.6517 11.0459L9.20504 10.2281C9.36489 10.1627 9.5319 10.0842 9.70086 9.99704C10.038 9.82246 10.3764 9.61503 10.6517 9.40995V11.0459ZM10.6517 12.0791V13.7145C10.5775 13.6591 10.4986 13.6037 10.4161 13.5486C10.1023 13.3392 9.73937 13.1363 9.40023 12.9812C9.33397 12.9511 9.26894 12.9233 9.20506 12.8971L10.6517 12.0791ZM11.261 12.0791L12.7076 12.8968C12.5482 12.9621 12.3808 13.0405 12.2122 13.1278C11.8746 13.3025 11.5363 13.5097 11.261 13.715V12.0791ZM13.7354 12.7891C13.7322 12.7833 13.7279 12.7751 13.7231 12.7646C13.7053 12.726 13.6834 12.6601 13.6644 12.5784C13.6355 12.4554 13.6121 12.2962 13.5962 12.121C13.5807 11.9456 13.5728 11.754 13.5728 11.5625C13.5723 11.2362 13.5966 10.9084 13.6402 10.6645C13.6616 10.5431 13.6894 10.4423 13.714 10.3815C13.7223 10.3607 13.7302 10.3454 13.7354 10.3357L15.1372 9.54335C15.0817 9.79796 15.04 10.0861 15.0107 10.3957C14.9758 10.7655 14.9587 11.1638 14.9583 11.5625C14.9587 12.2105 15.0035 12.857 15.0975 13.3829C15.1098 13.4513 15.1229 13.5173 15.1372 13.5814L13.7354 12.7891ZM12.2229 7.7231C12.7874 8.09091 13.4324 8.44575 14.0266 8.71276C14.311 8.84034 14.5831 8.94752 14.8326 9.02679L13.4312 9.81913C13.4169 9.81893 13.3923 9.81698 13.3606 9.81136C13.2975 9.80067 13.209 9.7766 13.1083 9.74107C12.9314 9.67914 12.7156 9.58301 12.4966 9.46955C12.1682 9.29982 11.8298 9.09008 11.5859 8.90251C11.4641 8.80927 11.3661 8.72053 11.309 8.65529C11.2848 8.62791 11.2689 8.60538 11.261 8.59256V7.00746C11.5252 7.24089 11.8564 7.48424 12.2229 7.7231ZM7.24152 8.97318C7.62587 8.83801 8.05745 8.64421 8.49419 8.41855C9.1487 8.07966 9.81077 7.67086 10.3217 7.27857C10.4407 7.18711 10.551 7.0968 10.6517 7.00766V8.59256C10.6469 8.60015 10.6398 8.61081 10.6299 8.62401C10.6002 8.66246 10.5478 8.71722 10.48 8.77705C10.3606 8.88272 10.1935 9.00602 10.0063 9.12738C9.72547 9.30956 9.39783 9.48898 9.10746 9.61872C8.96269 9.68378 8.82702 9.73641 8.71434 9.77078C8.65842 9.78806 8.60805 9.8009 8.56718 9.80865C8.5283 9.81623 8.49817 9.81895 8.48189 9.81916L7.08046 9.02681C7.13324 9.0101 7.18678 8.99223 7.24152 8.97318ZM9.69015 15.4019C9.12532 15.0341 8.48032 14.6792 7.8861 14.4122C7.6021 14.2845 7.32998 14.1772 7.08007 14.0982L8.48191 13.3059C8.49618 13.3059 8.52079 13.3078 8.55213 13.3135C8.6152 13.3243 8.70366 13.3484 8.80443 13.3837C8.98172 13.4459 9.19713 13.542 9.41607 13.6552C9.74453 13.8249 10.0829 14.0349 10.3268 14.2225C10.4486 14.3157 10.5466 14.4044 10.6037 14.4697C10.6279 14.4971 10.6438 14.5196 10.6517 14.5324V16.1173C10.3875 15.8841 10.0563 15.6406 9.69015 15.4019ZM14.6715 14.1518C14.2868 14.2868 13.8552 14.4808 13.4189 14.7065C12.7644 15.0453 12.1019 15.4541 11.591 15.8464C11.4724 15.9379 11.3621 16.028 11.261 16.1173V14.5324C11.2658 14.5247 11.2729 14.514 11.2832 14.501C11.3126 14.4625 11.3649 14.4078 11.4331 14.3479C11.5521 14.2421 11.7195 14.1188 11.9064 13.9976C12.1872 13.8155 12.5148 13.636 12.8052 13.5061C12.95 13.441 13.0861 13.3886 13.1983 13.354C13.2542 13.3369 13.3046 13.3241 13.3455 13.3164C13.3844 13.3086 13.4145 13.3059 13.4308 13.3059L14.8322 14.098C14.7798 14.1147 14.7259 14.1328 14.6715 14.1518Z"
    fill="#5297FF" />
</svg>