<svg width="22" height="22" viewBox="0 0 22 22" fill="none" xmlns="http://www.w3.org/2000/svg">
<circle cx="11" cy="11" r="10.5" stroke="#5297FF"/>
<path d="M10.9906 6C10.1561 6 9.35666 6.33807 8.77793 6.93909C8.19919 7.53743 7.88964 8.34773 7.91925 9.1795C7.95155 10.0113 8.32032 10.7947 8.94213 11.3501C8.08345 11.6507 7.34051 12.2087 6.81292 12.9466C6.28533 13.6845 6.00269 14.5699 6 15.4768C6 15.6646 6.0996 15.8363 6.2638 15.9302C6.34455 15.9759 6.43607 16 6.52759 16C6.61911 16 6.70794 15.9759 6.79139 15.9302C6.95289 15.8363 7.05518 15.6646 7.05518 15.4768C7.05518 14.594 7.40781 13.7462 8.03499 13.1237C8.66218 12.4985 9.51009 12.147 10.3957 12.147H11.6043C12.4899 12.147 13.3405 12.4985 13.965 13.1237C14.5922 13.7489 14.9448 14.594 14.9448 15.4768C14.9448 15.6646 15.0444 15.8363 15.2086 15.9302C15.2894 15.9759 15.3809 16 15.4724 16C15.5639 16 15.6528 15.9759 15.7362 15.9302C15.8977 15.8363 16 15.6646 16 15.4768C16 14.5672 15.712 13.6845 15.1817 12.9439C14.6514 12.2034 13.9058 11.648 13.0444 11.3501C13.6662 10.7947 14.035 10.0113 14.0673 9.1795C14.0996 8.34773 13.7873 7.54011 13.2086 6.93909C12.6299 6.34076 11.8304 6 10.996 6H10.9906ZM10.9906 11.0872C10.4576 11.0872 9.94616 10.8752 9.56931 10.4996C9.19246 10.124 8.97981 9.61417 8.97981 9.08291C8.97981 8.55165 9.19246 8.04186 9.56931 7.66354C9.94616 7.2879 10.4576 7.07593 10.9906 7.07593C11.5236 7.07593 12.035 7.2879 12.4118 7.66354C12.7887 8.03917 13.0013 8.54897 13.0013 9.08291C13.0013 9.61685 12.7887 10.124 12.4118 10.4996C12.035 10.8752 11.5236 11.0872 10.9906 11.0872Z" fill="#5297FF"/>
<path d="M10.9906 6C10.1561 6 9.35666 6.33807 8.77793 6.93909C8.19919 7.53743 7.88964 8.34773 7.91925 9.1795C7.95155 10.0113 8.32032 10.7947 8.94213 11.3501C8.08345 11.6507 7.34051 12.2087 6.81292 12.9466C6.28533 13.6845 6.00269 14.5699 6 15.4768C6 15.6646 6.0996 15.8363 6.2638 15.9302C6.34455 15.9759 6.43607 16 6.52759 16C6.61911 16 6.70794 15.9759 6.79139 15.9302C6.95289 15.8363 7.05518 15.6646 7.05518 15.4768C7.05518 14.594 7.40781 13.7462 8.03499 13.1237C8.66218 12.4985 9.51009 12.147 10.3957 12.147H11.6043C12.4899 12.147 13.3405 12.4985 13.965 13.1237C14.5922 13.7489 14.9448 14.594 14.9448 15.4768C14.9448 15.6646 15.0444 15.8363 15.2086 15.9302C15.2894 15.9759 15.3809 16 15.4724 16C15.5639 16 15.6528 15.9759 15.7362 15.9302C15.8977 15.8363 16 15.6646 16 15.4768C16 14.5672 15.712 13.6845 15.1817 12.9439C14.6514 12.2034 13.9058 11.648 13.0444 11.3501C13.6662 10.7947 14.035 10.0113 14.0673 9.1795C14.0996 8.34773 13.7873 7.54011 13.2086 6.93909C12.6299 6.34076 11.8304 6 10.996 6H10.9906ZM10.9906 11.0872C10.4576 11.0872 9.94616 10.8752 9.56931 10.4996C9.19246 10.124 8.97981 9.61417 8.97981 9.08291C8.97981 8.55165 9.19246 8.04186 9.56931 7.66354C9.94616 7.2879 10.4576 7.07593 10.9906 7.07593C11.5236 7.07593 12.035 7.2879 12.4118 7.66354C12.7887 8.03917 13.0013 8.54897 13.0013 9.08291C13.0013 9.61685 12.7887 10.124 12.4118 10.4996C12.035 10.8752 11.5236 11.0872 10.9906 11.0872Z" stroke="#5297FF"/>
</svg>
