<svg width="22" height="22" viewBox="0 0 22 22" fill="none" xmlns="http://www.w3.org/2000/svg">
<circle cx="11" cy="11" r="10.5" stroke="#5297FF"/>
<path d="M15.9354 11.5L9.00037 11.5007C8.41337 11.5007 7.9355 12.0911 7.9355 12.8166L7.9356 13.5008C7.9356 14.2262 8.41347 14.8166 9.00047 14.8166L15.9355 14.8159C16.5225 14.8159 17.0004 14.2255 17.0004 13.5001L17.0003 12.8159C17.0003 12.0904 16.5224 11.5 15.9354 11.5ZM16.3936 13.4982C16.3936 13.8094 16.1888 14.0643 15.9355 14.0643L9.00047 14.065C8.74868 14.065 8.54236 13.8119 8.54236 13.4989L8.54226 12.8147C8.54226 12.5035 8.74706 12.2486 9.00037 12.2486L12.4679 12.2483L15.9354 12.2479C16.1872 12.2479 16.3935 12.5009 16.3935 12.814L16.3936 13.4982Z" fill="#5297FF"/>
<path d="M6.5 6.00024H5.06488C4.47783 6.00024 4 6.59068 4 7.31608V13.6844C4 14.4098 4.47783 15.0002 5.06488 15.0002H6.5C7.08705 15.0002 7.56488 14.4098 7.56488 13.6844V7.31608C7.56488 6.59068 7.08705 6.00024 6.5 6.00024ZM6.95811 13.6825C6.95811 13.9937 6.75333 14.2486 6.5 14.2486H5.06488C4.81307 14.2486 4.60677 13.9956 4.60677 13.6825L4.60677 7.31421C4.60677 7.00306 4.81155 6.74814 5.06488 6.74814H6.5C6.75181 6.74814 6.95811 7.00118 6.95811 7.31421V13.6825Z" fill="#5297FF"/>
<path d="M11.0651 6H9.06488C8.47783 6 8 6.59044 8 7.31584V9.75171C8 10.4771 8.47783 11.0675 9.06488 11.0675H11.0651C11.6521 11.0675 12.1299 10.4771 12.1299 9.75171V7.31584C12.1299 6.59044 11.6521 6 11.0651 6ZM11.5232 9.74984C11.5232 10.061 11.3184 10.3159 11.0651 10.3159H9.06488C8.81307 10.3159 8.60677 10.0629 8.60677 9.74984V7.31396C8.60677 7.00281 8.81155 6.74789 9.06488 6.74789H11.0651C11.3169 6.74789 11.5232 7.00094 11.5232 7.31396V9.74984Z" fill="#5297FF"/>
<path d="M15.5651 6H13.5649C12.9778 6 12.5 6.59044 12.5 7.31584V9.75171C12.5 10.4771 12.9778 11.0675 13.5649 11.0675H15.5651C16.1521 11.0675 16.6299 10.4771 16.6299 9.75171V7.31584C16.6299 6.59044 16.1521 6 15.5651 6ZM16.0232 9.74984C16.0232 10.061 15.8184 10.3159 15.5651 10.3159H13.5649C13.3131 10.3159 13.1068 10.0629 13.1068 9.74984V7.31396C13.1068 7.00281 13.3116 6.74789 13.5649 6.74789H15.5651C15.8169 6.74789 16.0232 7.00094 16.0232 7.31396V9.74984Z" fill="#5297FF"/>
</svg>
