<svg width="22" height="22" viewBox="0 0 22 22" fill="none" xmlns="http://www.w3.org/2000/svg">
<circle cx="11" cy="11" r="10.5" stroke="#5297FF"/>
<path d="M7.50757 7C6.92108 7 6.35919 7.24629 5.95243 7.68414C5.54568 8.12004 5.32811 8.71035 5.34892 9.3163C5.37162 9.92226 5.63081 10.493 6.06784 10.8976C5.46432 11.1166 4.94216 11.5231 4.57135 12.0607C4.20054 12.5982 4.00189 13.2433 4 13.904C4 14.0408 4.07 14.1659 4.18541 14.2343C4.24216 14.2675 4.30649 14.2851 4.37081 14.2851C4.43514 14.2851 4.49757 14.2675 4.55622 14.2343C4.66973 14.1659 4.74162 14.0408 4.74162 13.904C4.74162 13.2609 4.98946 12.6432 5.43027 12.1897C5.87108 11.7343 6.46703 11.4782 7.08946 11.4782H7.93892C8.56135 11.4782 9.15919 11.7343 9.59811 12.1897C10.0389 12.6451 10.2868 13.2609 10.2868 13.904C10.2868 14.0408 10.3568 14.1659 10.4722 14.2343C10.5289 14.2675 10.5932 14.2851 10.6576 14.2851C10.7219 14.2851 10.7843 14.2675 10.843 14.2343C10.9565 14.1659 11.0284 14.0408 11.0284 13.904C11.0284 13.2413 10.8259 12.5982 10.4532 12.0587C10.0805 11.5192 9.55649 11.1146 8.95108 10.8976C9.38811 10.493 9.6473 9.92226 9.67 9.3163C9.6927 8.71035 9.47324 8.12199 9.06649 7.68414C8.65973 7.24825 8.09784 7 7.51135 7H7.50757ZM7.50757 10.7061C7.13297 10.7061 6.77351 10.5517 6.50865 10.278C6.24378 10.0044 6.09432 9.63296 6.09432 9.24594C6.09432 8.85891 6.24378 8.48752 6.50865 8.21191C6.77351 7.93825 7.13297 7.78383 7.50757 7.78383C7.88216 7.78383 8.24162 7.93825 8.50649 8.21191C8.77135 8.48556 8.92081 8.85695 8.92081 9.24594C8.92081 9.63492 8.77135 10.0044 8.50649 10.278C8.24162 10.5517 7.88216 10.7061 7.50757 10.7061Z" fill="#5297FF"/>
<path d="M17.1171 11.7855C17.1153 12.0081 17.0568 12.2264 16.9476 12.4187C16.8383 12.6111 16.682 12.7708 16.4941 12.8821C16.2847 13.0181 16.0528 13.1137 15.8098 13.1641V13.6541C15.8116 13.7127 15.8019 13.7711 15.7812 13.8259C15.7606 13.8806 15.7294 13.9305 15.6896 13.9726C15.6498 14.0148 15.6022 14.0483 15.5495 14.0712C15.4969 14.094 15.4403 14.1058 15.3831 14.1058C15.3259 14.1058 15.2693 14.094 15.2167 14.0712C15.164 14.0483 15.1164 14.0148 15.0766 13.9726C15.0368 13.9305 15.0056 13.8806 14.985 13.8259C14.9643 13.7711 14.9546 13.7127 14.9564 13.6541V13.1687L14.9303 13.1641C14.7789 13.1343 14.631 13.088 14.4893 13.0258C14.2787 12.9363 14.0923 12.796 13.9459 12.6166C13.9093 12.5732 13.8813 12.5227 13.8636 12.4682C13.846 12.4136 13.839 12.3561 13.843 12.2987C13.847 12.2414 13.862 12.1854 13.8871 12.1341C13.9122 12.0827 13.9469 12.0369 13.9892 11.9992C14.0316 11.9616 14.0807 11.9329 14.1339 11.9148C14.187 11.8967 14.2431 11.8895 14.299 11.8936C14.3549 11.8977 14.4094 11.9131 14.4595 11.9389C14.5095 11.9646 14.5542 12.0002 14.5908 12.0437C14.6486 12.1168 14.7225 12.1747 14.8064 12.2126L14.8072 12.213C14.8936 12.2517 14.9836 12.2813 15.0758 12.3014H15.0766C15.1717 12.3203 15.2679 12.3322 15.3647 12.3372C15.599 12.3369 15.8289 12.2715 16.0299 12.1479C16.2371 12.0097 16.2637 11.8821 16.2637 11.7859C16.2629 11.6843 16.2269 11.5863 16.1621 11.5094C16.0972 11.4341 16.02 11.3708 15.9341 11.3223C15.8471 11.2761 15.7546 11.2418 15.6589 11.2202C15.5703 11.2012 15.48 11.1918 15.3895 11.1921C15.2496 11.1928 15.1098 11.1814 14.9717 11.1581C14.7864 11.1267 14.6066 11.0672 14.4383 10.9816C14.2435 10.8813 14.0717 10.7397 13.9343 10.566C13.7452 10.3322 13.6401 10.0388 13.6367 9.73489C13.6373 9.53782 13.6829 9.34364 13.7698 9.1679C13.8891 8.93354 14.0687 8.73717 14.2891 8.60006C14.4943 8.47043 14.7204 8.37953 14.9568 8.33167V7.85825C14.955 7.7996 14.9648 7.74118 14.9854 7.68645C15.006 7.63173 15.0372 7.58181 15.077 7.53968C15.1168 7.49754 15.1644 7.46404 15.2171 7.44116C15.2697 7.41828 15.3263 7.40649 15.3835 7.40649C15.4407 7.40649 15.4973 7.41828 15.55 7.44116C15.6026 7.46404 15.6503 7.49754 15.6901 7.53968C15.7299 7.58181 15.761 7.63173 15.7816 7.68645C15.8023 7.74118 15.812 7.7996 15.8102 7.85825V8.34485L15.8363 8.35081H15.8372C15.9906 8.38695 16.1399 8.43941 16.2827 8.50734C16.4609 8.58987 16.6233 8.70438 16.7623 8.84549C16.8373 8.9285 16.878 9.03807 16.876 9.15125C16.874 9.26443 16.8294 9.37243 16.7516 9.4526C16.6737 9.53278 16.5686 9.57892 16.4584 9.58136C16.3481 9.58379 16.2412 9.54232 16.16 9.46565C16.0939 9.39902 16.0169 9.34488 15.9325 9.30572C15.8436 9.26304 15.7507 9.22969 15.6552 9.20618L15.6279 9.20023C15.5521 9.18003 15.4747 9.16679 15.3966 9.16067C15.1676 9.15909 14.9424 9.22111 14.745 9.34017C14.6722 9.37682 14.6102 9.4327 14.5654 9.50207C14.5206 9.57144 14.4946 9.6518 14.4901 9.73489C14.4945 9.83712 14.5318 9.93497 14.5962 10.0131L14.5971 10.0143C14.6581 10.0904 14.7339 10.1527 14.8196 10.1972L14.8205 10.1981C14.9126 10.2442 15.0107 10.2765 15.1118 10.2938H15.1127C15.2042 10.3092 15.2968 10.3168 15.3895 10.3163C15.5409 10.3158 15.6919 10.3318 15.8401 10.364L15.8413 10.3644C16.0117 10.4028 16.1764 10.464 16.3312 10.5465L16.3329 10.5473C16.5111 10.646 16.6709 10.7765 16.8045 10.9327L16.8054 10.9335C17.0063 11.1695 17.1167 11.4721 17.1171 11.7855Z" fill="#5297FF"/>
</svg>
