<svg width="22" height="22" viewBox="0 0 22 22" fill="none" xmlns="http://www.w3.org/2000/svg">
<circle cx="11" cy="11" r="10.5" stroke="#5297FF"/>
<g clip-path="url(#clip0_24_173)">
<path d="M8.75 5.5C8.31374 5.5 7.8966 5.58777 7.5166 5.74414L6.82227 6.0293L8.79297 8L8 8.79297L6.0293 6.82227L5.74414 7.5166C5.58777 7.8966 5.5 8.31374 5.5 8.75C5.5 10.5391 6.96087 12 8.75 12C9.02803 12 9.28328 11.9259 9.53797 11.852C9.56665 11.8437 9.59532 11.8354 9.62402 11.8271L14.0781 16.2803C14.3672 16.5694 14.8496 16.5694 15.1387 16.2803L16.2812 15.1367C16.5683 14.8482 16.5688 14.3656 16.2803 14.0771L11.8271 9.62402C11.8355 9.59483 11.8439 9.56566 11.8524 9.53648C11.9261 9.2823 12 9.02748 12 8.75C12 6.96087 10.5391 5.5 8.75 5.5ZM8.75 6.5C9.99887 6.5 11 7.50113 11 8.75C11 9.05347 10.939 9.3409 10.8301 9.60645L10.7041 9.91504L15.3965 14.6074L14.6084 15.3965L9.91504 10.7031L9.60645 10.8301C9.34126 10.9393 9.05406 11 8.75 11C7.50113 11 6.5 9.99887 6.5 8.75C6.5 8.7435 6.50171 8.73756 6.50342 8.73163C6.50507 8.72588 6.50673 8.72013 6.50684 8.71387L8 10.207L10.207 8L8.71387 6.50684C8.72013 6.50673 8.72588 6.50507 8.73163 6.50342C8.73756 6.50171 8.7435 6.5 8.75 6.5Z" fill="#5297FF"/>
<path d="M8.75 5.5C8.31374 5.5 7.8966 5.58777 7.5166 5.74414L6.82227 6.0293L8.79297 8L8 8.79297L6.0293 6.82227L5.74414 7.5166C5.58777 7.8966 5.5 8.31374 5.5 8.75C5.5 10.5391 6.96087 12 8.75 12C9.02803 12 9.28328 11.9259 9.53797 11.852C9.56665 11.8437 9.59532 11.8354 9.62402 11.8271L14.0781 16.2803C14.3672 16.5694 14.8496 16.5694 15.1387 16.2803L16.2812 15.1367C16.5683 14.8482 16.5688 14.3656 16.2803 14.0771L11.8271 9.62402C11.8355 9.59483 11.8439 9.56566 11.8524 9.53648C11.9261 9.2823 12 9.02748 12 8.75C12 6.96087 10.5391 5.5 8.75 5.5ZM8.75 6.5C9.99887 6.5 11 7.50113 11 8.75C11 9.05347 10.939 9.3409 10.8301 9.60645L10.7041 9.91504L15.3965 14.6074L14.6084 15.3965L9.91504 10.7031L9.60645 10.8301C9.34126 10.9393 9.05406 11 8.75 11C7.50113 11 6.5 9.99887 6.5 8.75C6.5 8.7435 6.50171 8.73756 6.50342 8.73163C6.50507 8.72588 6.50673 8.72013 6.50684 8.71387L8 10.207L10.207 8L8.71387 6.50684C8.72013 6.50673 8.72588 6.50507 8.73163 6.50342C8.73756 6.50171 8.7435 6.5 8.75 6.5Z" stroke="#5297FF"/>
</g>
<defs>
<clipPath id="clip0_24_173">
<rect width="12" height="12" fill="white" transform="translate(5 5)"/>
</clipPath>
</defs>
</svg>
