<svg viewBox="0 0 24 24" fill="none" xmlns="http://www.w3.org/2000/svg">
  <circle cx="11" cy="11" r="10.5" stroke="#5297FF" />
  <path fill-rule="evenodd" clip-rule="evenodd"
    d="M8.5 6A1.5 1.5 0 0 0 7 7.5v6A1.5 1.5 0 0 0 8.5 15h5a1.5 1.5 0 0 0 1.5-1.5v-6A1.5 1.5 0 0 0 13.5 6h-5ZM14 7.5a.5.5 0 0 0-.5-.5h-5a.5.5 0 0 0-.5.5v4h1.468c.257 0 .505.089.704.246a1.33 1.33 0 0 0 1.646.008c.207-.164.464-.254.73-.254H14v-4Zm-6 5v1a.5.5 0 0 0 .5.5h5a.5.5 0 0 0 .5-.5v-1h-1.453a.174.174 0 0 0-.108.038 2.33 2.33 0 0 1-2.889-.009.135.135 0 0 0-.082-.029H8ZM9 10a.5.5 0 0 1 .5-.5h3a.5.5 0 0 1 0 1h-3A.5.5 0 0 1 9 10Zm.5-2a.5.5 0 0 0 0 1h3a.5.5 0 0 0 0-1h-3Z"
    fill="#5297FF" />
</svg>