<svg width="22" height="22" viewBox="0 0 22 22" fill="none" xmlns="http://www.w3.org/2000/svg">
<circle cx="11" cy="11" r="10.5" stroke="#5297FF"/>
<path d="M15.9351 8H5.06488C4.47783 8 4 8.59044 4 9.31584V12.6842C4 13.4096 4.47783 14 5.06488 14H15.9351C16.5222 14 17 13.4096 17 12.6842V9.31584C17 8.59044 16.5222 8 15.9351 8ZM16.3932 12.6823C16.3932 12.9934 16.1884 13.2484 15.9351 13.2484H5.06488C4.81307 13.2484 4.60677 12.9953 4.60677 12.6823V9.31396C4.60677 9.00281 4.81155 8.74789 5.06488 8.74789H15.9351C16.1869 8.74789 16.3932 9.00094 16.3932 9.31396V12.6823Z" fill="#5297FF"/>
<path d="M8.47748 12.0069L7.78577 11.3296C7.88431 11.1631 7.93841 10.9739 7.93841 10.7753C7.93841 10.4801 7.82248 10.202 7.60801 9.99392C7.39547 9.78582 7.11145 9.67041 6.81003 9.67041C6.50862 9.67041 6.22653 9.78582 6.01399 9.99392C5.57346 10.4234 5.57346 11.1253 6.01399 11.5566C6.23426 11.7723 6.52408 11.8801 6.81197 11.8801C7.00711 11.8801 7.20033 11.8272 7.37422 11.7288L8.06786 12.4099C8.12389 12.4647 8.19925 12.4931 8.27267 12.4931C8.34609 12.4931 8.42144 12.4647 8.47748 12.4099C8.59147 12.3001 8.59147 12.1185 8.47748 12.0088V12.0069ZM6.42361 11.1537C6.20914 10.9437 6.21107 10.6031 6.42361 10.3931C6.52794 10.291 6.66512 10.2361 6.81197 10.2361C6.95881 10.2361 7.09599 10.2928 7.20033 10.3931C7.30466 10.4934 7.3607 10.6296 7.3607 10.7734C7.3607 10.9172 7.30273 11.0515 7.20033 11.1537C6.98586 11.3618 6.63807 11.3618 6.42361 11.1537Z" fill="#5297FF"/>
</svg>
