<svg width="22" height="22" viewBox="0 0 22 22" fill="none" xmlns="http://www.w3.org/2000/svg">
<circle cx="11" cy="11" r="10.5" stroke="#5297FF"/>
<g clip-path="url(#clip0_24_174)">
<path d="M13.625 6.79976H8.80002L8.80001 14.5749H13.625C13.8596 14.5749 14.05 14.7653 14.05 14.9999C14.05 15.2345 13.8596 15.4249 13.625 15.4249H8.37499C8.1404 15.4249 7.95 15.2345 7.95 14.9999L7.95001 6.37477C7.95001 6.14015 8.14041 5.94979 8.375 5.94979H13.625C13.8596 5.94979 14.05 6.14018 14.05 6.37477C14.05 6.6094 13.8596 6.79976 13.625 6.79976Z" fill="#5297FF" stroke="#5297FF" stroke-width="0.1"/>
<path d="M13.9218 12.9416L13.9219 12.9416L15.951 10.7572C15.9511 10.7571 15.9511 10.757 15.9512 10.757C16.0838 10.6164 16.0821 10.3834 15.951 10.243L15.951 10.243L15.9144 10.2771L15.9509 10.2429L13.9219 8.05834L13.9219 8.05831C13.7874 7.91374 13.5676 7.9138 13.4329 8.05822C13.2999 8.20042 13.2999 8.42964 13.4327 8.57213L13.9218 12.9416ZM13.9218 12.9416C13.787 13.0862 13.5673 13.0858 13.4329 12.9417L13.9218 12.9416ZM14.8841 10.8652L13.4329 12.4276C13.4328 12.4277 13.4328 12.4277 13.4328 12.4277L13.4327 12.4278L14.8841 10.8652ZM14.8841 10.8652H11.2941C11.1009 10.8652 10.95 10.6984 10.95 10.5C10.95 10.3015 11.101 10.1347 11.2941 10.1347H14.8841L13.4328 8.57221L14.8841 10.8652Z" fill="#5297FF" stroke="#5297FF" stroke-width="0.1"/>
</g>
<defs>
<clipPath id="clip0_24_174">
<rect width="12" height="12" fill="white" transform="matrix(1 0 0 -1 8 18)"/>
</clipPath>
</defs>
</svg>
