<svg xmlns="http://www.w3.org/2000/svg" viewBox="0 0 24 24" fill="#323C47">
  <path
    d="M2.354 2c-.734 0-1.339.63-1.339 1.395v17.166a.48.48 0 0 0 .028.32c.126.634.669 1.119 1.311 1.119h17.402c.666 0 1.213-.523 1.311-1.192l.014-.087v-.029l.014-.073 2.217-12.485.014-.044v-.044c0-.765-.605-1.395-1.339-1.395V5.256c0-.765-.605-1.395-1.339-1.395H9.061a.45.45 0 0 1-.139-.131c-.11-.131-.237-.349-.376-.581s-.289-.48-.474-.698S7.628 2 7.262 2H2.354zm0 .93h4.908c-.028 0 .03 0 .139.131s.237.349.376.581.293.48.474.698.429.451.795.451h11.601a.45.45 0 0 1 .446.465v1.395H4.585c-.702 0-1.262.589-1.311 1.308H3.26l-.014.087-1.339 7.529V3.395a.45.45 0 0 1 .446-.465zm2.231 4.651h17.402a.45.45 0 0 1 .446.465l-2.189 12.34-.014.029-.014.058-.014.058v.029l-.014.087c-.002.015.002.029 0 .044a.33.33 0 0 0 0 .058c-.056.189-.228.32-.432.32H2.354a.45.45 0 0 1-.446-.465L4.125 8.134l.014-.044v-.044a.45.45 0 0 1 .446-.465z">
  </path>
</svg>