<svg xmlns="http://www.w3.org/2000/svg" fill="none">
  <path fill="#18014B"
    d="M43.924 18.97c1.174-.512 1.174-2.178 0-2.69L25.265 8.115a4.39 4.39 0 0 0-3.53.002l-18.66 8.161c-1.173.515-1.173 2.179 0 2.691l8.675 3.796v4.876c0 1.668.943 3.194 2.435 3.94a20.825 20.825 0 0 0 18.628 0 4.405 4.405 0 0 0 2.437-3.94v-4.877l5.875-2.57v10.649a1.47 1.47 0 0 0-1.469 1.468v4.407c0 .81.658 1.468 1.469 1.468h1.469a1.47 1.47 0 0 0 1.468-1.468v-4.407a1.47 1.47 0 0 0-1.468-1.468V19.552l1.33-.582Zm-10.143 8.672c0 1.119-.623 2.127-1.624 2.627a19.46 19.46 0 0 1-8.657 2.043 19.46 19.46 0 0 1-8.657-2.043 2.923 2.923 0 0 1-1.624-2.627v-4.233l8.516 3.725a4.397 4.397 0 0 0 3.53 0l8.516-3.727v4.235Zm-9.103-1.854a2.926 2.926 0 0 1-2.356 0L3.664 17.625l18.658-8.163a2.93 2.93 0 0 1 2.356.001l18.657 8.162-1.642.718-16.88-1.35a1.46 1.46 0 0 0-1.313-.837 1.47 1.47 0 0 0 0 2.938c.495 0 .912-.262 1.178-.638l14.167 1.134-14.167 6.198Z" />
</svg>