<svg xmlns="http://www.w3.org/2000/svg" width="32" height="31" viewBox="0 0 32 31">
    <g fill="none" fill-rule="evenodd">
        <g fill="#FFC727">
            <g>
                <path d="M15.917 2.4C9.904 2.411 3.901 3.645 0 6.103 1.839 19.984 7.167 28.878 16 32.8c5.448-2.426 9.573-6.743 12.357-12.97h-6.634c-1.444 2.46-3.317 4.627-5.723 6.227-5.448-3.595-8.077-10.046-9.4-16.445 5.43-1.703 13.353-1.703 18.8 0-.308 1.48-.687 2.976-1.168 4.42h6.187c.67-2.425 1.203-5.074 1.581-7.929-3.9-2.458-9.904-3.692-15.917-3.703h-.166z" transform="translate(-56 -58) translate(56 56)"/>
            </g>
        </g>
    </g>
</svg>
