<?xml version="1.0" encoding="UTF-8"?>
<svg xmlns="http://www.w3.org/2000/svg">
  <defs>
    <symbol id="retained" xmlns="http://www.w3.org/2000/svg" viewBox="0 0 24 24" fill='none'>
      <g clip-path="url(#clipPath5)" stroke="#323c47" stroke-miterlimit="10" stroke-linejoin="round">
    <path d="M12 23c6.075 0 11-4.925 11-11S18.075 1 12 1 1 5.925 1 12s4.925 11 11 11z" />
    <path d="M7 12H17" stroke-linecap="round" />
  </g>
  <defs>
    <clipPath id="clipPath5">
      <path fill="#fff" d="M0 0h24v24H0z" />
    </clipPath>
  </defs>
    </symbol>

    <symbol id="alert" viewBox="0 0 24 24" fill="none" xmlns="http://www.w3.org/2000/svg" stroke="#F50F0F">
      <path
    d="M12 6.5v6.6M12 17v-.6M5.8 2.2 2.2 5.8C1.4 6.6 1 7.6 1 8.7v7.5c0 1.2.5 2.3 1.4 3.1l3.4 2.9c.8.5 1.7.8 2.6.8h6.9c1.1 0 2.1-.4 2.8-1.2l3.7-3.7c.8-.8 1.2-1.8 1.2-2.8V8.7c0-1.1-.4-2.1-1.2-2.8l-3.7-3.7c-.7-.8-1.7-1.2-2.8-1.2H8.7c-1.1 0-2.1.4-2.9 1.2Z"
    stroke-miterlimit="10" stroke-linecap="round" stroke-linejoin="round" />
    </symbol>

    <symbol id="cross" viewBox="0 0 19 18" fill="none" xmlns="http://www.w3.org/2000/svg">
      <path d="m14 4.5-9 9" stroke="#4b465c" stroke-width="1.75" stroke-linecap="round" stroke-linejoin="round" />
  <path d="m14 4.5-9 9" stroke="#fff" stroke-opacity=".2" stroke-width="1.75" stroke-linecap="round"
    stroke-linejoin="round" />
  <path d="m5 4.5 9 9" stroke="#4b465c" stroke-width="1.75" stroke-linecap="round" stroke-linejoin="round" />
  <path d="m5 4.5 9 9" stroke="#fff" stroke-opacity=".2" stroke-width="1.75" stroke-linecap="round"
    stroke-linejoin="round" />
    </symbol>

    <symbol id="video-play" xmlns="http://www.w3.org/2000/svg" viewBox="0 0 24 24" fill="none" stroke="#5297FF">
      <path d="M19 21H5c-2.2 0-4-1.8-4-4V7c0-2.2 1.8-4 4-4h14c2.2 0 4 1.8 4 4v10c0 2.2-1.8 4-4 4Z" stroke-miterlimit="10"
    stroke-linecap="round" stroke-linejoin="round" />
  <path d="m10.4 8.7 4.8 2.4c.7.4.7 1.4 0 1.8l-4.8 2.4c-.7.3-1.4-.2-1.4-.9V9.6c0-.7.8-1.2 1.4-.9Z"
    stroke-miterlimit="10" stroke-linecap="round" stroke-linejoin="round" />
    </symbol>

    <symbol id="great" viewBox="0 0 24 24" fill="none" stroke="#F2C94C" xmlns="http://www.w3.org/2000/svg">
      <path d="M12 23c6.075 0 11-4.925 11-11S18.075 1 12 1 1 5.925 1 12s4.925 11 11 11Z" stroke-miterlimit="10"
    stroke-linecap="round" stroke-linejoin="round" />
  <path d="M17 12a2 2 0 1 0 0-4 2 2 0 0 0 0 4ZM7 12a2 2 0 1 0 0-4 2 2 0 0 0 0 4ZM8 16s4 5 8 0" stroke-miterlimit="10"
    stroke-linecap="round" stroke-linejoin="round" />
    </symbol>

    <symbol id="arrow-circle-right-outlined" xmlns="http://www.w3.org/2000/svg" viewBox="0 0 58 58" stroke="#5297FF" fill="none">
      <path stroke-linecap="round" stroke-linejoin="round" stroke-width="2"
    d="M29 57C13.535 57 1 44.465 1 29S13.535 1 29 1s28 12.535 28 28-12.535 28-28 28Zm12.444-28H16.555" />
  <path stroke-linecap="round" stroke-linejoin="round" stroke-width="2" d="m32.11 19.242 9.334 9.334-9.333 9.333" />
    </symbol>

    <symbol id="open" xmlns="http://www.w3.org/2000/svg" viewBox="0 0 24 24" fill="#323C47">
      <path
    d="M2.354 2c-.734 0-1.339.63-1.339 1.395v17.166a.48.48 0 0 0 .028.32c.126.634.669 1.119 1.311 1.119h17.402c.666 0 1.213-.523 1.311-1.192l.014-.087v-.029l.014-.073 2.217-12.485.014-.044v-.044c0-.765-.605-1.395-1.339-1.395V5.256c0-.765-.605-1.395-1.339-1.395H9.061a.45.45 0 0 1-.139-.131c-.11-.131-.237-.349-.376-.581s-.289-.48-.474-.698S7.628 2 7.262 2H2.354zm0 .93h4.908c-.028 0 .03 0 .139.131s.237.349.376.581.293.48.474.698.429.451.795.451h11.601a.45.45 0 0 1 .446.465v1.395H4.585c-.702 0-1.262.589-1.311 1.308H3.26l-.014.087-1.339 7.529V3.395a.45.45 0 0 1 .446-.465zm2.231 4.651h17.402a.45.45 0 0 1 .446.465l-2.189 12.34-.014.029-.014.058-.014.058v.029l-.014.087c-.002.015.002.029 0 .044a.33.33 0 0 0 0 .058c-.056.189-.228.32-.432.32H2.354a.45.45 0 0 1-.446-.465L4.125 8.134l.014-.044v-.044a.45.45 0 0 1 .446-.465z">
  </path>
    </symbol>

    <symbol id="in-process" xmlns="http://www.w3.org/2000/svg" viewBox="0 0 24 24" fill="none" stroke="#323C47" stroke-miterlimit="10"
  stroke-linecap="round" stroke-linejoin="round">
      <path d="M1 12C1 5.9 5.9 1 12 1c4.3 0 8 2.4 9.8 6" />
  <path d="M22 1v6h-6m7 5a10.97 10.97 0 0 1-11 11c-4.3 0-8-2.4-9.8-6" />
  <path d="M2 23v-6h6" />
    </symbol>

    <symbol id="action" viewBox="0 0 16 15" fill="#5297FF" xmlns="http://www.w3.org/2000/svg">
      <path fill-rule="evenodd" clip-rule="evenodd"
    d="M7.917 5.862c.304 0 .55.24.55.534V9.24a.542.542 0 0 1-.55.533.542.542 0 0 1-.551-.533V6.396c0-.295.247-.534.55-.534Z" />
  <path
    d="M8.65 11.373a.723.723 0 0 1-.733.71.723.723 0 0 1-.734-.71c0-.393.328-.711.734-.711.405 0 .734.318.734.71Z" />
  <path fill-rule="evenodd" clip-rule="evenodd"
    d="M6.284 1.339C7.073.22 8.761.22 9.55 1.339c.978 1.386 2.362 3.403 3.288 4.984.972 1.66 2.079 3.933 2.815 5.499.58 1.232-.295 2.63-1.688 2.71-1.716.098-4.181.218-6.047.218-1.866 0-4.332-.12-6.048-.218-1.393-.08-2.267-1.478-1.688-2.71.737-1.566 1.844-3.839 2.816-5.499.925-1.581 2.31-3.598 3.287-4.984Zm2.356.601a.887.887 0 0 0-1.446 0c-.977 1.385-2.338 3.37-3.24 4.91-.946 1.615-2.035 3.85-2.77 5.414-.258.548.126 1.167.75 1.203 1.715.098 4.152.216 5.983.216 1.83 0 4.268-.117 5.982-.216.624-.036 1.009-.655.75-1.203-.734-1.564-1.824-3.799-2.77-5.415-.901-1.54-2.263-3.524-3.24-4.909Z" />
    </symbol>

    <symbol id="removed" xmlns="http://www.w3.org/2000/svg" viewBox="0 0 24 24" fill='none' stroke="#323c47" stroke-miterlimit="10"
  stroke-linejoin="round">
      <path d="M19 5H5v14c0 2.2 1.8 4 4 4h6c2.2 0 4-1.8 4-4V5z"></path>
  <path d="M3 5H21" stroke-linecap="round"></path>
  <path d="M13 1h-2c-1.1 0-2 .9-2 2v2h6V3c0-1.1-.9-2-2-2z"></path>
  <path d="M10 10v8m4-8v8" stroke-linecap="round"></path>
    </symbol>

    <symbol id="fixed" xmlns="http://www.w3.org/2000/svg" viewBox="0 0 24 24" stroke="#323C47" fill="none">
      <path d="M12 23c6.075 0 11-4.925 11-11S18.075 1 12 1 1 5.925 1 12s4.925 11 11 11Z" stroke-miterlimit="10"
    stroke-linecap="round" stroke-linejoin="round" />
  <path d="m17 9-6.4 7-3.7-4" stroke-miterlimit="10" stroke-linecap="round" stroke-linejoin="round" />
    </symbol>

    <symbol id="total" xmlns="http://www.w3.org/2000/svg" width="18" height="18" viewBox="0 0 24 24" aria-hidden="true" fill="none"
  role="img">
      <g clip-path="url(#clipPath1)" stroke="#828282" stroke-miterlimit="10" stroke-linecap="round" stroke-linejoin="round">
    <path d="M23 18v1c0 2.2-1.8 4-4 4H5c-2.2 0-4-1.8-4-4v-1M23 6V5c0-2.2-1.8-4-4-4H5C2.8 1 1 2.8 1 5v1"></path>
  </g>
  <rect x="1" y="11" width="22" height="1" rx=".5" fill="#959595"></rect>
  <defs>
    <clipPath id="clipPath1">
      <path fill="#fff" d="M0 0h24v24H0z"></path>
    </clipPath>
  </defs>
    </symbol>


  </defs>
</svg>