<?xml version="1.0" encoding="UTF-8"?>
<svg xmlns="http://www.w3.org/2000/svg">
  <defs>
    <symbol id="action" viewBox="0 0 16 15" fill="#5297FF" xmlns="http://www.w3.org/2000/svg">
      <path fill-rule="evenodd" clip-rule="evenodd"
    d="M7.917 5.862c.304 0 .55.24.55.534V9.24a.542.542 0 0 1-.55.533.542.542 0 0 1-.551-.533V6.396c0-.295.247-.534.55-.534Z" />
  <path
    d="M8.65 11.373a.723.723 0 0 1-.733.71.723.723 0 0 1-.734-.71c0-.393.328-.711.734-.711.405 0 .734.318.734.71Z" />
  <path fill-rule="evenodd" clip-rule="evenodd"
    d="M6.284 1.339C7.073.22 8.761.22 9.55 1.339c.978 1.386 2.362 3.403 3.288 4.984.972 1.66 2.079 3.933 2.815 5.499.58 1.232-.295 2.63-1.688 2.71-1.716.098-4.181.218-6.047.218-1.866 0-4.332-.12-6.048-.218-1.393-.08-2.267-1.478-1.688-2.71.737-1.566 1.844-3.839 2.816-5.499.925-1.581 2.31-3.598 3.287-4.984Zm2.356.601a.887.887 0 0 0-1.446 0c-.977 1.385-2.338 3.37-3.24 4.91-.946 1.615-2.035 3.85-2.77 5.414-.258.548.126 1.167.75 1.203 1.715.098 4.152.216 5.983.216 1.83 0 4.268-.117 5.982-.216.624-.036 1.009-.655.75-1.203-.734-1.564-1.824-3.799-2.77-5.415-.901-1.54-2.263-3.524-3.24-4.909Z" />
    </symbol>

    <symbol id="alert" viewBox="0 0 24 24" fill="none" xmlns="http://www.w3.org/2000/svg" stroke="#F50F0F">
      <path
    d="M12 6.5v6.6M12 17v-.6M5.8 2.2 2.2 5.8C1.4 6.6 1 7.6 1 8.7v7.5c0 1.2.5 2.3 1.4 3.1l3.4 2.9c.8.5 1.7.8 2.6.8h6.9c1.1 0 2.1-.4 2.8-1.2l3.7-3.7c.8-.8 1.2-1.8 1.2-2.8V8.7c0-1.1-.4-2.1-1.2-2.8l-3.7-3.7c-.7-.8-1.7-1.2-2.8-1.2H8.7c-1.1 0-2.1.4-2.9 1.2Z"
    stroke-miterlimit="10" stroke-linecap="round" stroke-linejoin="round" />
    </symbol>

    <symbol id="arrow-circle-right-outlined" xmlns="http://www.w3.org/2000/svg" viewBox="0 0 58 58" stroke="#5297FF" fill="none">
      <path stroke-linecap="round" stroke-linejoin="round" stroke-width="2"
    d="M29 57C13.535 57 1 44.465 1 29S13.535 1 29 1s28 12.535 28 28-12.535 28-28 28Zm12.444-28H16.555" />
  <path stroke-linecap="round" stroke-linejoin="round" stroke-width="2" d="m32.11 19.242 9.334 9.334-9.333 9.333" />
    </symbol>

    <symbol id="confidently-shield" xmlns="http://www.w3.org/2000/svg" viewBox="0 0 32 31">
      <g fill="none" fill-rule="evenodd">
    <g fill="#FFC727">
      <g>
        <path
          d="M15.917 2.4C9.904 2.411 3.901 3.645 0 6.103 1.839 19.984 7.167 28.878 16 32.8c5.448-2.426 9.573-6.743 12.357-12.97h-6.634c-1.444 2.46-3.317 4.627-5.723 6.227-5.448-3.595-8.077-10.046-9.4-16.445 5.43-1.703 13.353-1.703 18.8 0-.308 1.48-.687 2.976-1.168 4.42h6.187c.67-2.425 1.203-5.074 1.581-7.929-3.9-2.458-9.904-3.692-15.917-3.703h-.166z"
          transform="translate(-56 -58) translate(56 56)" />
      </g>
    </g>
  </g>
    </symbol>

    <symbol id="cross" viewBox="0 0 19 18" fill="none" xmlns="http://www.w3.org/2000/svg">
      <path d="m14 4.5-9 9" stroke="#4b465c" stroke-width="1.75" stroke-linecap="round" stroke-linejoin="round" />
  <path d="m14 4.5-9 9" stroke="#fff" stroke-opacity=".2" stroke-width="1.75" stroke-linecap="round"
    stroke-linejoin="round" />
  <path d="m5 4.5 9 9" stroke="#4b465c" stroke-width="1.75" stroke-linecap="round" stroke-linejoin="round" />
  <path d="m5 4.5 9 9" stroke="#fff" stroke-opacity=".2" stroke-width="1.75" stroke-linecap="round"
    stroke-linejoin="round" />
    </symbol>

    <symbol id="fixed" xmlns="http://www.w3.org/2000/svg" viewBox="0 0 24 24" stroke="#323C47" fill="none">
      <path d="M12 23c6.075 0 11-4.925 11-11S18.075 1 12 1 1 5.925 1 12s4.925 11 11 11Z" stroke-miterlimit="10"
    stroke-linecap="round" stroke-linejoin="round" />
  <path d="m17 9-6.4 7-3.7-4" stroke-miterlimit="10" stroke-linecap="round" stroke-linejoin="round" />
    </symbol>

    <symbol id="great" viewBox="0 0 24 24" fill="none" stroke="#F2C94C" xmlns="http://www.w3.org/2000/svg">
      <path d="M12 23c6.075 0 11-4.925 11-11S18.075 1 12 1 1 5.925 1 12s4.925 11 11 11Z" stroke-miterlimit="10"
    stroke-linecap="round" stroke-linejoin="round" />
  <path d="M17 12a2 2 0 1 0 0-4 2 2 0 0 0 0 4ZM7 12a2 2 0 1 0 0-4 2 2 0 0 0 0 4ZM8 16s4 5 8 0" stroke-miterlimit="10"
    stroke-linecap="round" stroke-linejoin="round" />
    </symbol>

    <symbol id="in-process" xmlns="http://www.w3.org/2000/svg" viewBox="0 0 24 24" fill="none" stroke="#323C47" stroke-miterlimit="10"
  stroke-linecap="round" stroke-linejoin="round">
      <path d="M1 12C1 5.9 5.9 1 12 1c4.3 0 8 2.4 9.8 6" />
  <path d="M22 1v6h-6m7 5a10.97 10.97 0 0 1-11 11c-4.3 0-8-2.4-9.8-6" />
  <path d="M2 23v-6h6" />
    </symbol>

    <symbol id="nav-archive" viewBox="0 0 24 24" fill="none" xmlns="http://www.w3.org/2000/svg">
      <circle cx="11" cy="11" r="10.5" stroke="#5297FF" />
  <path fill-rule="evenodd" clip-rule="evenodd"
    d="M8.5 6A1.5 1.5 0 0 0 7 7.5v6A1.5 1.5 0 0 0 8.5 15h5a1.5 1.5 0 0 0 1.5-1.5v-6A1.5 1.5 0 0 0 13.5 6h-5ZM14 7.5a.5.5 0 0 0-.5-.5h-5a.5.5 0 0 0-.5.5v4h1.468c.257 0 .505.089.704.246a1.33 1.33 0 0 0 1.646.008c.207-.164.464-.254.73-.254H14v-4Zm-6 5v1a.5.5 0 0 0 .5.5h5a.5.5 0 0 0 .5-.5v-1h-1.453a.174.174 0 0 0-.108.038 2.33 2.33 0 0 1-2.889-.009.135.135 0 0 0-.082-.029H8ZM9 10a.5.5 0 0 1 .5-.5h3a.5.5 0 0 1 0 1h-3A.5.5 0 0 1 9 10Zm.5-2a.5.5 0 0 0 0 1h3a.5.5 0 0 0 0-1h-3Z"
    fill="#5297FF" />
    </symbol>

    <symbol id="nav-bigadvertisers" viewBox="0 0 22 22" fill="none" xmlns="http://www.w3.org/2000/svg" stroke="#5297FF">
      <circle cx="11" cy="11" r="10.5" />
  <path d="M7.297 12.464H6.148v-2.357h1.149l8.805-2.75v7.857l-8.805-2.75Z" stroke-miterlimit="10" />
    </symbol>

    <symbol id="nav-darkweb" viewBox="0 0 22 22" fill="none" xmlns="http://www.w3.org/2000/svg">
      <circle cx="11" cy="11" r="10.5" stroke="#5297FF" />
  <path
    d="M15.9123 13.9865C15.8913 13.9524 15.8675 13.9034 15.8441 13.8434C15.8028 13.7377 15.7628 13.5977 15.7283 13.4348C15.6759 13.1903 15.6354 12.8939 15.6085 12.5733C15.5815 12.2529 15.5676 11.9076 15.568 11.5625C15.5676 10.9426 15.6125 10.3209 15.6977 9.84492C15.7402 9.60762 15.7934 9.40623 15.8493 9.26796C15.877 9.199 15.9052 9.14637 15.9274 9.11492C15.9381 9.09918 15.9472 9.0889 15.9524 9.08385L15.9564 9.08016L16.9131 8.53952L16.6085 8.02293L15.6517 8.56359C15.6509 8.56398 15.6446 8.56613 15.6315 8.56805C15.6176 8.57041 15.5974 8.57215 15.5716 8.57215C15.5256 8.57215 15.4633 8.56651 15.3896 8.5537C15.2511 8.5296 15.0746 8.48087 14.8771 8.41153C14.5308 8.29017 14.1198 8.10645 13.7033 7.89088C13.0786 7.56791 12.4387 7.17155 11.9671 6.80915C11.7314 6.62855 11.5383 6.45531 11.4145 6.31414C11.3523 6.24403 11.3082 6.18187 11.2848 6.13798C11.2729 6.11621 11.2662 6.09935 11.2634 6.08963C11.2618 6.08517 11.2614 6.08243 11.261 6.08145V5H10.6517V6.08168C10.6513 6.08461 10.6462 6.10578 10.6279 6.13841C10.6101 6.17143 10.5807 6.21473 10.5411 6.26385C10.4665 6.3561 10.3558 6.46795 10.2186 6.5872C9.97819 6.79654 9.65766 7.03038 9.30185 7.25914C8.76872 7.60288 8.15547 7.93749 7.60611 8.1822C7.33161 8.30455 7.07297 8.40455 6.85204 8.47195C6.74177 8.50576 6.641 8.53139 6.55374 8.54808C6.46688 8.56477 6.39349 8.57233 6.34116 8.57215C6.30982 8.57215 6.28639 8.56944 6.27333 8.56672C6.26657 8.56536 6.26262 8.56421 6.26102 8.56362L5.30466 8.02295L5.00003 8.53955L5.95639 9.08018C5.9588 9.08157 5.9778 9.10018 6.00082 9.13845C6.02145 9.17262 6.04524 9.22138 6.06904 9.28157C6.1103 9.38724 6.15036 9.52725 6.18486 9.69019C6.23683 9.93469 6.27728 10.2311 6.30427 10.5517C6.33166 10.8721 6.34514 11.2174 6.34514 11.5625C6.34514 12.1824 6.30071 12.804 6.21502 13.2799C6.17258 13.5174 6.11941 13.7187 6.06349 13.857C6.03574 13.9258 6.00757 13.9786 5.98574 14.0101C5.97464 14.0256 5.9655 14.0361 5.96034 14.0411L5.95636 14.0448L5 14.5855L5.30463 15.102L6.26099 14.5612C6.26497 14.5595 6.29354 14.5525 6.34113 14.5528C6.38713 14.5526 6.44981 14.5585 6.52319 14.5713C6.66163 14.5952 6.83853 14.6441 7.03606 14.7134C7.38234 14.8348 7.7929 15.0183 8.2094 15.2339C8.83417 15.5571 9.47438 15.9532 9.94562 16.3158C10.1812 16.4964 10.3748 16.6696 10.4986 16.8108C10.5605 16.8809 10.6045 16.9431 10.6279 16.9868C10.6398 17.0087 10.6469 17.0256 10.6497 17.0353C10.6509 17.0394 10.6513 17.0419 10.6517 17.0431V18.125H11.261V17.0437C11.261 17.0417 11.2665 17.0202 11.2852 16.9864C11.3026 16.9535 11.332 16.9102 11.3717 16.8611C11.4462 16.7687 11.5573 16.657 11.6945 16.5378C11.9349 16.3284 12.2554 16.0946 12.6109 15.8656C13.144 15.5219 13.7576 15.1873 14.307 14.9426C14.5811 14.8202 14.8397 14.7204 15.0607 14.6528C15.171 14.619 15.2721 14.5934 15.359 14.5769C15.4458 14.56 15.5193 14.5526 15.5716 14.5528C15.6029 14.5526 15.6263 14.5553 15.6398 14.5581C15.6462 14.5594 15.6498 14.5606 15.6517 14.5612L16.6085 15.102L16.9131 14.5854L15.9567 14.0448C15.9544 14.0436 15.9353 14.0252 15.9123 13.9865ZM6.77544 13.5816C6.83099 13.327 6.87264 13.0386 6.90199 12.7293C6.93691 12.3595 6.95435 11.961 6.95435 11.5625C6.95396 10.9142 6.90911 10.2677 6.81512 9.74205C6.80282 9.67368 6.78973 9.60746 6.77585 9.54356L8.17728 10.3357C8.18084 10.3417 8.18521 10.3499 8.18956 10.3604C8.20741 10.3988 8.22964 10.4647 8.24828 10.5464C8.27724 10.6695 8.30106 10.8288 8.31651 11.004C8.33198 11.1793 8.3403 11.3708 8.3403 11.5625C8.3403 11.8885 8.31651 12.2164 8.27247 12.4605C8.25106 12.5818 8.2237 12.6827 8.1987 12.7434C8.19034 12.7642 8.18283 12.7796 8.17728 12.7893L6.77544 13.5816ZM13.0123 12.3803L11.5656 11.5625L13.0123 10.7445C13.0047 10.8028 12.998 10.8622 12.992 10.9234C12.9726 11.1269 12.9635 11.3446 12.9635 11.5625C12.9635 11.8462 12.9794 12.1282 13.0123 12.3803ZM8.90038 12.3803C8.90792 12.322 8.91506 12.2628 8.92061 12.2014C8.94004 11.9981 8.94957 11.7804 8.94957 11.5625C8.9492 11.2788 8.93331 10.9968 8.90038 10.7445L10.347 11.5625L8.90038 12.3803ZM11.261 11.0459V9.41033C11.3356 9.46588 11.4141 9.52123 11.4966 9.5764C11.8104 9.78573 12.1733 9.98868 12.5125 10.1436C12.5791 10.1739 12.6438 10.2017 12.708 10.2279L11.261 11.0459ZM10.6517 11.0459L9.20504 10.2281C9.36489 10.1627 9.5319 10.0842 9.70086 9.99704C10.038 9.82246 10.3764 9.61503 10.6517 9.40995V11.0459ZM10.6517 12.0791V13.7145C10.5775 13.6591 10.4986 13.6037 10.4161 13.5486C10.1023 13.3392 9.73937 13.1363 9.40023 12.9812C9.33397 12.9511 9.26894 12.9233 9.20506 12.8971L10.6517 12.0791ZM11.261 12.0791L12.7076 12.8968C12.5482 12.9621 12.3808 13.0405 12.2122 13.1278C11.8746 13.3025 11.5363 13.5097 11.261 13.715V12.0791ZM13.7354 12.7891C13.7322 12.7833 13.7279 12.7751 13.7231 12.7646C13.7053 12.726 13.6834 12.6601 13.6644 12.5784C13.6355 12.4554 13.6121 12.2962 13.5962 12.121C13.5807 11.9456 13.5728 11.754 13.5728 11.5625C13.5723 11.2362 13.5966 10.9084 13.6402 10.6645C13.6616 10.5431 13.6894 10.4423 13.714 10.3815C13.7223 10.3607 13.7302 10.3454 13.7354 10.3357L15.1372 9.54335C15.0817 9.79796 15.04 10.0861 15.0107 10.3957C14.9758 10.7655 14.9587 11.1638 14.9583 11.5625C14.9587 12.2105 15.0035 12.857 15.0975 13.3829C15.1098 13.4513 15.1229 13.5173 15.1372 13.5814L13.7354 12.7891ZM12.2229 7.7231C12.7874 8.09091 13.4324 8.44575 14.0266 8.71276C14.311 8.84034 14.5831 8.94752 14.8326 9.02679L13.4312 9.81913C13.4169 9.81893 13.3923 9.81698 13.3606 9.81136C13.2975 9.80067 13.209 9.7766 13.1083 9.74107C12.9314 9.67914 12.7156 9.58301 12.4966 9.46955C12.1682 9.29982 11.8298 9.09008 11.5859 8.90251C11.4641 8.80927 11.3661 8.72053 11.309 8.65529C11.2848 8.62791 11.2689 8.60538 11.261 8.59256V7.00746C11.5252 7.24089 11.8564 7.48424 12.2229 7.7231ZM7.24152 8.97318C7.62587 8.83801 8.05745 8.64421 8.49419 8.41855C9.1487 8.07966 9.81077 7.67086 10.3217 7.27857C10.4407 7.18711 10.551 7.0968 10.6517 7.00766V8.59256C10.6469 8.60015 10.6398 8.61081 10.6299 8.62401C10.6002 8.66246 10.5478 8.71722 10.48 8.77705C10.3606 8.88272 10.1935 9.00602 10.0063 9.12738C9.72547 9.30956 9.39783 9.48898 9.10746 9.61872C8.96269 9.68378 8.82702 9.73641 8.71434 9.77078C8.65842 9.78806 8.60805 9.8009 8.56718 9.80865C8.5283 9.81623 8.49817 9.81895 8.48189 9.81916L7.08046 9.02681C7.13324 9.0101 7.18678 8.99223 7.24152 8.97318ZM9.69015 15.4019C9.12532 15.0341 8.48032 14.6792 7.8861 14.4122C7.6021 14.2845 7.32998 14.1772 7.08007 14.0982L8.48191 13.3059C8.49618 13.3059 8.52079 13.3078 8.55213 13.3135C8.6152 13.3243 8.70366 13.3484 8.80443 13.3837C8.98172 13.4459 9.19713 13.542 9.41607 13.6552C9.74453 13.8249 10.0829 14.0349 10.3268 14.2225C10.4486 14.3157 10.5466 14.4044 10.6037 14.4697C10.6279 14.4971 10.6438 14.5196 10.6517 14.5324V16.1173C10.3875 15.8841 10.0563 15.6406 9.69015 15.4019ZM14.6715 14.1518C14.2868 14.2868 13.8552 14.4808 13.4189 14.7065C12.7644 15.0453 12.1019 15.4541 11.591 15.8464C11.4724 15.9379 11.3621 16.028 11.261 16.1173V14.5324C11.2658 14.5247 11.2729 14.514 11.2832 14.501C11.3126 14.4625 11.3649 14.4078 11.4331 14.3479C11.5521 14.2421 11.7195 14.1188 11.9064 13.9976C12.1872 13.8155 12.5148 13.636 12.8052 13.5061C12.95 13.441 13.0861 13.3886 13.1983 13.354C13.2542 13.3369 13.3046 13.3241 13.3455 13.3164C13.3844 13.3086 13.4145 13.3059 13.4308 13.3059L14.8322 14.098C14.7798 14.1147 14.7259 14.1328 14.6715 14.1518Z"
    fill="#5297FF" />
    </symbol>

    <symbol id="nav-dashboard" width="22" height="22" viewBox="0 0 22 22" fill="none" xmlns="http://www.w3.org/2000/svg">
      <circle cx="11" cy="11" r="10.5" stroke="#5297FF"/>
<path d="M15.9354 11.5L9.00037 11.5007C8.41337 11.5007 7.9355 12.0911 7.9355 12.8166L7.9356 13.5008C7.9356 14.2262 8.41347 14.8166 9.00047 14.8166L15.9355 14.8159C16.5225 14.8159 17.0004 14.2255 17.0004 13.5001L17.0003 12.8159C17.0003 12.0904 16.5224 11.5 15.9354 11.5ZM16.3936 13.4982C16.3936 13.8094 16.1888 14.0643 15.9355 14.0643L9.00047 14.065C8.74868 14.065 8.54236 13.8119 8.54236 13.4989L8.54226 12.8147C8.54226 12.5035 8.74706 12.2486 9.00037 12.2486L12.4679 12.2483L15.9354 12.2479C16.1872 12.2479 16.3935 12.5009 16.3935 12.814L16.3936 13.4982Z" fill="#5297FF"/>
<path d="M6.5 6.00024H5.06488C4.47783 6.00024 4 6.59068 4 7.31608V13.6844C4 14.4098 4.47783 15.0002 5.06488 15.0002H6.5C7.08705 15.0002 7.56488 14.4098 7.56488 13.6844V7.31608C7.56488 6.59068 7.08705 6.00024 6.5 6.00024ZM6.95811 13.6825C6.95811 13.9937 6.75333 14.2486 6.5 14.2486H5.06488C4.81307 14.2486 4.60677 13.9956 4.60677 13.6825L4.60677 7.31421C4.60677 7.00306 4.81155 6.74814 5.06488 6.74814H6.5C6.75181 6.74814 6.95811 7.00118 6.95811 7.31421V13.6825Z" fill="#5297FF"/>
<path d="M11.0651 6H9.06488C8.47783 6 8 6.59044 8 7.31584V9.75171C8 10.4771 8.47783 11.0675 9.06488 11.0675H11.0651C11.6521 11.0675 12.1299 10.4771 12.1299 9.75171V7.31584C12.1299 6.59044 11.6521 6 11.0651 6ZM11.5232 9.74984C11.5232 10.061 11.3184 10.3159 11.0651 10.3159H9.06488C8.81307 10.3159 8.60677 10.0629 8.60677 9.74984V7.31396C8.60677 7.00281 8.81155 6.74789 9.06488 6.74789H11.0651C11.3169 6.74789 11.5232 7.00094 11.5232 7.31396V9.74984Z" fill="#5297FF"/>
<path d="M15.5651 6H13.5649C12.9778 6 12.5 6.59044 12.5 7.31584V9.75171C12.5 10.4771 12.9778 11.0675 13.5649 11.0675H15.5651C16.1521 11.0675 16.6299 10.4771 16.6299 9.75171V7.31584C16.6299 6.59044 16.1521 6 15.5651 6ZM16.0232 9.74984C16.0232 10.061 15.8184 10.3159 15.5651 10.3159H13.5649C13.3131 10.3159 13.1068 10.0629 13.1068 9.74984V7.31396C13.1068 7.00281 13.3116 6.74789 13.5649 6.74789H15.5651C15.8169 6.74789 16.0232 7.00094 16.0232 7.31396V9.74984Z" fill="#5297FF"/>
    </symbol>

    <symbol id="nav-databrokers" width="22" height="22" viewBox="0 0 22 22" fill="none" xmlns="http://www.w3.org/2000/svg">
      <circle cx="11" cy="11" r="10.5" stroke="#5297FF"/>
<path d="M7.50757 7C6.92108 7 6.35919 7.24629 5.95243 7.68414C5.54568 8.12004 5.32811 8.71035 5.34892 9.3163C5.37162 9.92226 5.63081 10.493 6.06784 10.8976C5.46432 11.1166 4.94216 11.5231 4.57135 12.0607C4.20054 12.5982 4.00189 13.2433 4 13.904C4 14.0408 4.07 14.1659 4.18541 14.2343C4.24216 14.2675 4.30649 14.2851 4.37081 14.2851C4.43514 14.2851 4.49757 14.2675 4.55622 14.2343C4.66973 14.1659 4.74162 14.0408 4.74162 13.904C4.74162 13.2609 4.98946 12.6432 5.43027 12.1897C5.87108 11.7343 6.46703 11.4782 7.08946 11.4782H7.93892C8.56135 11.4782 9.15919 11.7343 9.59811 12.1897C10.0389 12.6451 10.2868 13.2609 10.2868 13.904C10.2868 14.0408 10.3568 14.1659 10.4722 14.2343C10.5289 14.2675 10.5932 14.2851 10.6576 14.2851C10.7219 14.2851 10.7843 14.2675 10.843 14.2343C10.9565 14.1659 11.0284 14.0408 11.0284 13.904C11.0284 13.2413 10.8259 12.5982 10.4532 12.0587C10.0805 11.5192 9.55649 11.1146 8.95108 10.8976C9.38811 10.493 9.6473 9.92226 9.67 9.3163C9.6927 8.71035 9.47324 8.12199 9.06649 7.68414C8.65973 7.24825 8.09784 7 7.51135 7H7.50757ZM7.50757 10.7061C7.13297 10.7061 6.77351 10.5517 6.50865 10.278C6.24378 10.0044 6.09432 9.63296 6.09432 9.24594C6.09432 8.85891 6.24378 8.48752 6.50865 8.21191C6.77351 7.93825 7.13297 7.78383 7.50757 7.78383C7.88216 7.78383 8.24162 7.93825 8.50649 8.21191C8.77135 8.48556 8.92081 8.85695 8.92081 9.24594C8.92081 9.63492 8.77135 10.0044 8.50649 10.278C8.24162 10.5517 7.88216 10.7061 7.50757 10.7061Z" fill="#5297FF"/>
<path d="M17.1171 11.7855C17.1153 12.0081 17.0568 12.2264 16.9476 12.4187C16.8383 12.6111 16.682 12.7708 16.4941 12.8821C16.2847 13.0181 16.0528 13.1137 15.8098 13.1641V13.6541C15.8116 13.7127 15.8019 13.7711 15.7812 13.8259C15.7606 13.8806 15.7294 13.9305 15.6896 13.9726C15.6498 14.0148 15.6022 14.0483 15.5495 14.0712C15.4969 14.094 15.4403 14.1058 15.3831 14.1058C15.3259 14.1058 15.2693 14.094 15.2167 14.0712C15.164 14.0483 15.1164 14.0148 15.0766 13.9726C15.0368 13.9305 15.0056 13.8806 14.985 13.8259C14.9643 13.7711 14.9546 13.7127 14.9564 13.6541V13.1687L14.9303 13.1641C14.7789 13.1343 14.631 13.088 14.4893 13.0258C14.2787 12.9363 14.0923 12.796 13.9459 12.6166C13.9093 12.5732 13.8813 12.5227 13.8636 12.4682C13.846 12.4136 13.839 12.3561 13.843 12.2987C13.847 12.2414 13.862 12.1854 13.8871 12.1341C13.9122 12.0827 13.9469 12.0369 13.9892 11.9992C14.0316 11.9616 14.0807 11.9329 14.1339 11.9148C14.187 11.8967 14.2431 11.8895 14.299 11.8936C14.3549 11.8977 14.4094 11.9131 14.4595 11.9389C14.5095 11.9646 14.5542 12.0002 14.5908 12.0437C14.6486 12.1168 14.7225 12.1747 14.8064 12.2126L14.8072 12.213C14.8936 12.2517 14.9836 12.2813 15.0758 12.3014H15.0766C15.1717 12.3203 15.2679 12.3322 15.3647 12.3372C15.599 12.3369 15.8289 12.2715 16.0299 12.1479C16.2371 12.0097 16.2637 11.8821 16.2637 11.7859C16.2629 11.6843 16.2269 11.5863 16.1621 11.5094C16.0972 11.4341 16.02 11.3708 15.9341 11.3223C15.8471 11.2761 15.7546 11.2418 15.6589 11.2202C15.5703 11.2012 15.48 11.1918 15.3895 11.1921C15.2496 11.1928 15.1098 11.1814 14.9717 11.1581C14.7864 11.1267 14.6066 11.0672 14.4383 10.9816C14.2435 10.8813 14.0717 10.7397 13.9343 10.566C13.7452 10.3322 13.6401 10.0388 13.6367 9.73489C13.6373 9.53782 13.6829 9.34364 13.7698 9.1679C13.8891 8.93354 14.0687 8.73717 14.2891 8.60006C14.4943 8.47043 14.7204 8.37953 14.9568 8.33167V7.85825C14.955 7.7996 14.9648 7.74118 14.9854 7.68645C15.006 7.63173 15.0372 7.58181 15.077 7.53968C15.1168 7.49754 15.1644 7.46404 15.2171 7.44116C15.2697 7.41828 15.3263 7.40649 15.3835 7.40649C15.4407 7.40649 15.4973 7.41828 15.55 7.44116C15.6026 7.46404 15.6503 7.49754 15.6901 7.53968C15.7299 7.58181 15.761 7.63173 15.7816 7.68645C15.8023 7.74118 15.812 7.7996 15.8102 7.85825V8.34485L15.8363 8.35081H15.8372C15.9906 8.38695 16.1399 8.43941 16.2827 8.50734C16.4609 8.58987 16.6233 8.70438 16.7623 8.84549C16.8373 8.9285 16.878 9.03807 16.876 9.15125C16.874 9.26443 16.8294 9.37243 16.7516 9.4526C16.6737 9.53278 16.5686 9.57892 16.4584 9.58136C16.3481 9.58379 16.2412 9.54232 16.16 9.46565C16.0939 9.39902 16.0169 9.34488 15.9325 9.30572C15.8436 9.26304 15.7507 9.22969 15.6552 9.20618L15.6279 9.20023C15.5521 9.18003 15.4747 9.16679 15.3966 9.16067C15.1676 9.15909 14.9424 9.22111 14.745 9.34017C14.6722 9.37682 14.6102 9.4327 14.5654 9.50207C14.5206 9.57144 14.4946 9.6518 14.4901 9.73489C14.4945 9.83712 14.5318 9.93497 14.5962 10.0131L14.5971 10.0143C14.6581 10.0904 14.7339 10.1527 14.8196 10.1972L14.8205 10.1981C14.9126 10.2442 15.0107 10.2765 15.1118 10.2938H15.1127C15.2042 10.3092 15.2968 10.3168 15.3895 10.3163C15.5409 10.3158 15.6919 10.3318 15.8401 10.364L15.8413 10.3644C16.0117 10.4028 16.1764 10.464 16.3312 10.5465L16.3329 10.5473C16.5111 10.646 16.6709 10.7765 16.8045 10.9327L16.8054 10.9335C17.0063 11.1695 17.1167 11.4721 17.1171 11.7855Z" fill="#5297FF"/>
    </symbol>

    <symbol id="nav-googlesearch" width="22" height="22" viewBox="0 0 22 22" fill="none" xmlns="http://www.w3.org/2000/svg">
      <circle cx="11" cy="11" r="10.5" stroke="#5297FF"/>
<path d="M15.9351 8H5.06488C4.47783 8 4 8.59044 4 9.31584V12.6842C4 13.4096 4.47783 14 5.06488 14H15.9351C16.5222 14 17 13.4096 17 12.6842V9.31584C17 8.59044 16.5222 8 15.9351 8ZM16.3932 12.6823C16.3932 12.9934 16.1884 13.2484 15.9351 13.2484H5.06488C4.81307 13.2484 4.60677 12.9953 4.60677 12.6823V9.31396C4.60677 9.00281 4.81155 8.74789 5.06488 8.74789H15.9351C16.1869 8.74789 16.3932 9.00094 16.3932 9.31396V12.6823Z" fill="#5297FF"/>
<path d="M8.47748 12.0069L7.78577 11.3296C7.88431 11.1631 7.93841 10.9739 7.93841 10.7753C7.93841 10.4801 7.82248 10.202 7.60801 9.99392C7.39547 9.78582 7.11145 9.67041 6.81003 9.67041C6.50862 9.67041 6.22653 9.78582 6.01399 9.99392C5.57346 10.4234 5.57346 11.1253 6.01399 11.5566C6.23426 11.7723 6.52408 11.8801 6.81197 11.8801C7.00711 11.8801 7.20033 11.8272 7.37422 11.7288L8.06786 12.4099C8.12389 12.4647 8.19925 12.4931 8.27267 12.4931C8.34609 12.4931 8.42144 12.4647 8.47748 12.4099C8.59147 12.3001 8.59147 12.1185 8.47748 12.0088V12.0069ZM6.42361 11.1537C6.20914 10.9437 6.21107 10.6031 6.42361 10.3931C6.52794 10.291 6.66512 10.2361 6.81197 10.2361C6.95881 10.2361 7.09599 10.2928 7.20033 10.3931C7.30466 10.4934 7.3607 10.6296 7.3607 10.7734C7.3607 10.9172 7.30273 11.0515 7.20033 11.1537C6.98586 11.3618 6.63807 11.3618 6.42361 11.1537Z" fill="#5297FF"/>
    </symbol>

    <symbol id="nav-logout" width="22" height="22" viewBox="0 0 22 22" fill="none" xmlns="http://www.w3.org/2000/svg">
      <circle cx="11" cy="11" r="10.5" stroke="#5297FF"/>
<g clip-path="url(#clip0_24_174)">
<path d="M13.625 6.79976H8.80002L8.80001 14.5749H13.625C13.8596 14.5749 14.05 14.7653 14.05 14.9999C14.05 15.2345 13.8596 15.4249 13.625 15.4249H8.37499C8.1404 15.4249 7.95 15.2345 7.95 14.9999L7.95001 6.37477C7.95001 6.14015 8.14041 5.94979 8.375 5.94979H13.625C13.8596 5.94979 14.05 6.14018 14.05 6.37477C14.05 6.6094 13.8596 6.79976 13.625 6.79976Z" fill="#5297FF" stroke="#5297FF" stroke-width="0.1"/>
<path d="M13.9218 12.9416L13.9219 12.9416L15.951 10.7572C15.9511 10.7571 15.9511 10.757 15.9512 10.757C16.0838 10.6164 16.0821 10.3834 15.951 10.243L15.951 10.243L15.9144 10.2771L15.9509 10.2429L13.9219 8.05834L13.9219 8.05831C13.7874 7.91374 13.5676 7.9138 13.4329 8.05822C13.2999 8.20042 13.2999 8.42964 13.4327 8.57213L13.9218 12.9416ZM13.9218 12.9416C13.787 13.0862 13.5673 13.0858 13.4329 12.9417L13.9218 12.9416ZM14.8841 10.8652L13.4329 12.4276C13.4328 12.4277 13.4328 12.4277 13.4328 12.4277L13.4327 12.4278L14.8841 10.8652ZM14.8841 10.8652H11.2941C11.1009 10.8652 10.95 10.6984 10.95 10.5C10.95 10.3015 11.101 10.1347 11.2941 10.1347H14.8841L13.4328 8.57221L14.8841 10.8652Z" fill="#5297FF" stroke="#5297FF" stroke-width="0.1"/>
</g>
<defs>
<clipPath id="clip0_24_174">
<rect width="12" height="12" fill="white" transform="matrix(1 0 0 -1 8 18)"/>
</clipPath>
</defs>
    </symbol>

    <symbol id="nav-profile" width="22" height="22" viewBox="0 0 22 22" fill="none" xmlns="http://www.w3.org/2000/svg">
      <circle cx="11" cy="11" r="10.5" stroke="#5297FF"/>
<path d="M10.9906 6C10.1561 6 9.35666 6.33807 8.77793 6.93909C8.19919 7.53743 7.88964 8.34773 7.91925 9.1795C7.95155 10.0113 8.32032 10.7947 8.94213 11.3501C8.08345 11.6507 7.34051 12.2087 6.81292 12.9466C6.28533 13.6845 6.00269 14.5699 6 15.4768C6 15.6646 6.0996 15.8363 6.2638 15.9302C6.34455 15.9759 6.43607 16 6.52759 16C6.61911 16 6.70794 15.9759 6.79139 15.9302C6.95289 15.8363 7.05518 15.6646 7.05518 15.4768C7.05518 14.594 7.40781 13.7462 8.03499 13.1237C8.66218 12.4985 9.51009 12.147 10.3957 12.147H11.6043C12.4899 12.147 13.3405 12.4985 13.965 13.1237C14.5922 13.7489 14.9448 14.594 14.9448 15.4768C14.9448 15.6646 15.0444 15.8363 15.2086 15.9302C15.2894 15.9759 15.3809 16 15.4724 16C15.5639 16 15.6528 15.9759 15.7362 15.9302C15.8977 15.8363 16 15.6646 16 15.4768C16 14.5672 15.712 13.6845 15.1817 12.9439C14.6514 12.2034 13.9058 11.648 13.0444 11.3501C13.6662 10.7947 14.035 10.0113 14.0673 9.1795C14.0996 8.34773 13.7873 7.54011 13.2086 6.93909C12.6299 6.34076 11.8304 6 10.996 6H10.9906ZM10.9906 11.0872C10.4576 11.0872 9.94616 10.8752 9.56931 10.4996C9.19246 10.124 8.97981 9.61417 8.97981 9.08291C8.97981 8.55165 9.19246 8.04186 9.56931 7.66354C9.94616 7.2879 10.4576 7.07593 10.9906 7.07593C11.5236 7.07593 12.035 7.2879 12.4118 7.66354C12.7887 8.03917 13.0013 8.54897 13.0013 9.08291C13.0013 9.61685 12.7887 10.124 12.4118 10.4996C12.035 10.8752 11.5236 11.0872 10.9906 11.0872Z" fill="#5297FF"/>
<path d="M10.9906 6C10.1561 6 9.35666 6.33807 8.77793 6.93909C8.19919 7.53743 7.88964 8.34773 7.91925 9.1795C7.95155 10.0113 8.32032 10.7947 8.94213 11.3501C8.08345 11.6507 7.34051 12.2087 6.81292 12.9466C6.28533 13.6845 6.00269 14.5699 6 15.4768C6 15.6646 6.0996 15.8363 6.2638 15.9302C6.34455 15.9759 6.43607 16 6.52759 16C6.61911 16 6.70794 15.9759 6.79139 15.9302C6.95289 15.8363 7.05518 15.6646 7.05518 15.4768C7.05518 14.594 7.40781 13.7462 8.03499 13.1237C8.66218 12.4985 9.51009 12.147 10.3957 12.147H11.6043C12.4899 12.147 13.3405 12.4985 13.965 13.1237C14.5922 13.7489 14.9448 14.594 14.9448 15.4768C14.9448 15.6646 15.0444 15.8363 15.2086 15.9302C15.2894 15.9759 15.3809 16 15.4724 16C15.5639 16 15.6528 15.9759 15.7362 15.9302C15.8977 15.8363 16 15.6646 16 15.4768C16 14.5672 15.712 13.6845 15.1817 12.9439C14.6514 12.2034 13.9058 11.648 13.0444 11.3501C13.6662 10.7947 14.035 10.0113 14.0673 9.1795C14.0996 8.34773 13.7873 7.54011 13.2086 6.93909C12.6299 6.34076 11.8304 6 10.996 6H10.9906ZM10.9906 11.0872C10.4576 11.0872 9.94616 10.8752 9.56931 10.4996C9.19246 10.124 8.97981 9.61417 8.97981 9.08291C8.97981 8.55165 9.19246 8.04186 9.56931 7.66354C9.94616 7.2879 10.4576 7.07593 10.9906 7.07593C11.5236 7.07593 12.035 7.2879 12.4118 7.66354C12.7887 8.03917 13.0013 8.54897 13.0013 9.08291C13.0013 9.61685 12.7887 10.124 12.4118 10.4996C12.035 10.8752 11.5236 11.0872 10.9906 11.0872Z" stroke="#5297FF"/>
    </symbol>

    <symbol id="nav-support" width="22" height="22" viewBox="0 0 22 22" fill="none" xmlns="http://www.w3.org/2000/svg">
      <circle cx="11" cy="11" r="10.5" stroke="#5297FF"/>
<g clip-path="url(#clip0_24_173)">
<path d="M8.75 5.5C8.31374 5.5 7.8966 5.58777 7.5166 5.74414L6.82227 6.0293L8.79297 8L8 8.79297L6.0293 6.82227L5.74414 7.5166C5.58777 7.8966 5.5 8.31374 5.5 8.75C5.5 10.5391 6.96087 12 8.75 12C9.02803 12 9.28328 11.9259 9.53797 11.852C9.56665 11.8437 9.59532 11.8354 9.62402 11.8271L14.0781 16.2803C14.3672 16.5694 14.8496 16.5694 15.1387 16.2803L16.2812 15.1367C16.5683 14.8482 16.5688 14.3656 16.2803 14.0771L11.8271 9.62402C11.8355 9.59483 11.8439 9.56566 11.8524 9.53648C11.9261 9.2823 12 9.02748 12 8.75C12 6.96087 10.5391 5.5 8.75 5.5ZM8.75 6.5C9.99887 6.5 11 7.50113 11 8.75C11 9.05347 10.939 9.3409 10.8301 9.60645L10.7041 9.91504L15.3965 14.6074L14.6084 15.3965L9.91504 10.7031L9.60645 10.8301C9.34126 10.9393 9.05406 11 8.75 11C7.50113 11 6.5 9.99887 6.5 8.75C6.5 8.7435 6.50171 8.73756 6.50342 8.73163C6.50507 8.72588 6.50673 8.72013 6.50684 8.71387L8 10.207L10.207 8L8.71387 6.50684C8.72013 6.50673 8.72588 6.50507 8.73163 6.50342C8.73756 6.50171 8.7435 6.5 8.75 6.5Z" fill="#5297FF"/>
<path d="M8.75 5.5C8.31374 5.5 7.8966 5.58777 7.5166 5.74414L6.82227 6.0293L8.79297 8L8 8.79297L6.0293 6.82227L5.74414 7.5166C5.58777 7.8966 5.5 8.31374 5.5 8.75C5.5 10.5391 6.96087 12 8.75 12C9.02803 12 9.28328 11.9259 9.53797 11.852C9.56665 11.8437 9.59532 11.8354 9.62402 11.8271L14.0781 16.2803C14.3672 16.5694 14.8496 16.5694 15.1387 16.2803L16.2812 15.1367C16.5683 14.8482 16.5688 14.3656 16.2803 14.0771L11.8271 9.62402C11.8355 9.59483 11.8439 9.56566 11.8524 9.53648C11.9261 9.2823 12 9.02748 12 8.75C12 6.96087 10.5391 5.5 8.75 5.5ZM8.75 6.5C9.99887 6.5 11 7.50113 11 8.75C11 9.05347 10.939 9.3409 10.8301 9.60645L10.7041 9.91504L15.3965 14.6074L14.6084 15.3965L9.91504 10.7031L9.60645 10.8301C9.34126 10.9393 9.05406 11 8.75 11C7.50113 11 6.5 9.99887 6.5 8.75C6.5 8.7435 6.50171 8.73756 6.50342 8.73163C6.50507 8.72588 6.50673 8.72013 6.50684 8.71387L8 10.207L10.207 8L8.71387 6.50684C8.72013 6.50673 8.72588 6.50507 8.73163 6.50342C8.73756 6.50171 8.7435 6.5 8.75 6.5Z" stroke="#5297FF"/>
</g>
<defs>
<clipPath id="clip0_24_173">
<rect width="12" height="12" fill="white" transform="translate(5 5)"/>
</clipPath>
</defs>
    </symbol>

    <symbol id="open" xmlns="http://www.w3.org/2000/svg" viewBox="0 0 24 24" fill="#323C47">
      <path
    d="M2.354 2c-.734 0-1.339.63-1.339 1.395v17.166a.48.48 0 0 0 .028.32c.126.634.669 1.119 1.311 1.119h17.402c.666 0 1.213-.523 1.311-1.192l.014-.087v-.029l.014-.073 2.217-12.485.014-.044v-.044c0-.765-.605-1.395-1.339-1.395V5.256c0-.765-.605-1.395-1.339-1.395H9.061a.45.45 0 0 1-.139-.131c-.11-.131-.237-.349-.376-.581s-.289-.48-.474-.698S7.628 2 7.262 2H2.354zm0 .93h4.908c-.028 0 .03 0 .139.131s.237.349.376.581.293.48.474.698.429.451.795.451h11.601a.45.45 0 0 1 .446.465v1.395H4.585c-.702 0-1.262.589-1.311 1.308H3.26l-.014.087-1.339 7.529V3.395a.45.45 0 0 1 .446-.465zm2.231 4.651h17.402a.45.45 0 0 1 .446.465l-2.189 12.34-.014.029-.014.058-.014.058v.029l-.014.087c-.002.015.002.029 0 .044a.33.33 0 0 0 0 .058c-.056.189-.228.32-.432.32H2.354a.45.45 0 0 1-.446-.465L4.125 8.134l.014-.044v-.044a.45.45 0 0 1 .446-.465z">
  </path>
    </symbol>

    <symbol id="removed" xmlns="http://www.w3.org/2000/svg" viewBox="0 0 24 24" fill='none' stroke="#323c47" stroke-miterlimit="10"
  stroke-linejoin="round">
      <path d="M19 5H5v14c0 2.2 1.8 4 4 4h6c2.2 0 4-1.8 4-4V5z"></path>
  <path d="M3 5H21" stroke-linecap="round"></path>
  <path d="M13 1h-2c-1.1 0-2 .9-2 2v2h6V3c0-1.1-.9-2-2-2z"></path>
  <path d="M10 10v8m4-8v8" stroke-linecap="round"></path>
    </symbol>

    <symbol id="retained" xmlns="http://www.w3.org/2000/svg" viewBox="0 0 24 24" fill='none'>
      <g clip-path="url(#clipPath5)" stroke="#323c47" stroke-miterlimit="10" stroke-linejoin="round">
    <path d="M12 23c6.075 0 11-4.925 11-11S18.075 1 12 1 1 5.925 1 12s4.925 11 11 11z" />
    <path d="M7 12H17" stroke-linecap="round" />
  </g>
  <defs>
    <clipPath id="clipPath5">
      <path fill="#fff" d="M0 0h24v24H0z" />
    </clipPath>
  </defs>
    </symbol>

    <symbol id="total" xmlns="http://www.w3.org/2000/svg" width="18" height="18" viewBox="0 0 24 24" aria-hidden="true" fill="none"
  role="img">
      <g clip-path="url(#clipPath1)" stroke="#828282" stroke-miterlimit="10" stroke-linecap="round" stroke-linejoin="round">
    <path d="M23 18v1c0 2.2-1.8 4-4 4H5c-2.2 0-4-1.8-4-4v-1M23 6V5c0-2.2-1.8-4-4-4H5C2.8 1 1 2.8 1 5v1"></path>
  </g>
  <rect x="1" y="11" width="22" height="1" rx=".5" fill="#959595"></rect>
  <defs>
    <clipPath id="clipPath1">
      <path fill="#fff" d="M0 0h24v24H0z"></path>
    </clipPath>
  </defs>
    </symbol>

    <symbol id="video-library" xmlns="http://www.w3.org/2000/svg" fill="none">
      <path fill="#18014B"
    d="M43.924 18.97c1.174-.512 1.174-2.178 0-2.69L25.265 8.115a4.39 4.39 0 0 0-3.53.002l-18.66 8.161c-1.173.515-1.173 2.179 0 2.691l8.675 3.796v4.876c0 1.668.943 3.194 2.435 3.94a20.825 20.825 0 0 0 18.628 0 4.405 4.405 0 0 0 2.437-3.94v-4.877l5.875-2.57v10.649a1.47 1.47 0 0 0-1.469 1.468v4.407c0 .81.658 1.468 1.469 1.468h1.469a1.47 1.47 0 0 0 1.468-1.468v-4.407a1.47 1.47 0 0 0-1.468-1.468V19.552l1.33-.582Zm-10.143 8.672c0 1.119-.623 2.127-1.624 2.627a19.46 19.46 0 0 1-8.657 2.043 19.46 19.46 0 0 1-8.657-2.043 2.923 2.923 0 0 1-1.624-2.627v-4.233l8.516 3.725a4.397 4.397 0 0 0 3.53 0l8.516-3.727v4.235Zm-9.103-1.854a2.926 2.926 0 0 1-2.356 0L3.664 17.625l18.658-8.163a2.93 2.93 0 0 1 2.356.001l18.657 8.162-1.642.718-16.88-1.35a1.46 1.46 0 0 0-1.313-.837 1.47 1.47 0 0 0 0 2.938c.495 0 .912-.262 1.178-.638l14.167 1.134-14.167 6.198Z" />
    </symbol>

    <symbol id="video-play" xmlns="http://www.w3.org/2000/svg" viewBox="0 0 24 24" fill="none" stroke="#5297FF">
      <path d="M19 21H5c-2.2 0-4-1.8-4-4V7c0-2.2 1.8-4 4-4h14c2.2 0 4 1.8 4 4v10c0 2.2-1.8 4-4 4Z" stroke-miterlimit="10"
    stroke-linecap="round" stroke-linejoin="round" />
  <path d="m10.4 8.7 4.8 2.4c.7.4.7 1.4 0 1.8l-4.8 2.4c-.7.3-1.4-.2-1.4-.9V9.6c0-.7.8-1.2 1.4-.9Z"
    stroke-miterlimit="10" stroke-linecap="round" stroke-linejoin="round" />
    </symbol>


  </defs>
</svg>